<?xml version="1.0" encoding="UTF-8"?>
<svg width="100%" height="100%" viewBox="0 0 512 512" preserveAspectRatio="none" version="1.1" xmlns="http://www.w3.org/2000/svg" xmlns:xlink="http://www.w3.org/1999/xlink">
    <!-- Generator: Sketch 42 (36781) - http://www.bohemiancoding.com/sketch -->
    <title>3</title>
    <desc>Created with Sketch.</desc>
    <defs></defs>
    <g id="Page-1" stroke="none" stroke-width="1" fill="none" fill-rule="evenodd">
        <g id="3" fill="#FEFEFE">
            <path d="M257.217539,5 C365.131824,5 422.447635,64.9582022 422.447635,140.91618 C422.447635,210.184831 379.795278,240.163933 351.151026,249.501685 L351.151026,252.150112 C397.134745,269.487753 431.103715,302.115281 431.103715,363.411348 C431.103715,449.335056 369.145842,507.300112 266.528969,507.300112 C157.276677,507.300112 81.993356,459.32809 80,336.763258 L223.903918,336.763258 C221.910562,368.052921 231.904648,385.390562 259.866245,385.390562 C275.867705,385.390562 287.855147,372.721798 287.855147,352.73573 C287.855147,328.763371 274.529699,314.784045 233.898004,314.784045 L209.240464,314.784045 L209.240464,195.522921 L233.242654,195.522921 C245.230096,196.178202 278.543717,196.860787 278.543717,159.564382 C278.543717,135.564719 266.528969,126.909551 253.886177,126.909551 C232.559998,126.909551 229.228636,148.916067 229.228636,168.219551 L85.324718,168.219551 C87.9734239,62.3097753 148.620597,5 257.217539,5" id="Fill-8"></path>
        </g>
    </g>
</svg>
