<?xml version="1.0" encoding="UTF-8"?>
<svg width="100%" height="100%" viewBox="0 0 512 512" preserveAspectRatio="none" version="1.1" xmlns="http://www.w3.org/2000/svg" xmlns:xlink="http://www.w3.org/1999/xlink">
    <!-- Generator: Sketch 42 (36781) - http://www.bohemiancoding.com/sketch -->
    <title>5</title>
    <desc>Created with Sketch.</desc>
    <defs></defs>
    <g id="Page-1" stroke="none" stroke-width="1" fill="none" fill-rule="evenodd">
        <g id="5" fill="#FEFEFE">
            <path d="M407.171906,142.909438 L213.952907,142.909438 L213.952907,198.854045 C230.609718,183.536854 258.59862,174.199101 292.567591,174.199101 C387.183734,174.199101 431.146791,248.163933 431.146791,331.439213 C431.146791,438.686854 367.195562,499.982921 262.612638,499.982921 C145.33231,499.982921 78.0497194,434.700562 80.0430754,344.080674 L223.946994,344.080674 C223.946994,354.756292 229.954368,373.404494 255.267258,373.404494 C278.586792,373.404494 287.898222,354.756292 287.898222,328.763483 C287.898222,302.115393 274.60008,289.473933 253.273902,289.473933 C233.28573,289.473933 224.602343,300.777528 224.602343,311.453146 L80.6984253,311.453146 L80.6984253,13 L407.171906,13 L407.171906,142.909438 Z" id="Fill-12"></path>
        </g>
    </g>
</svg>
