<?xml version="1.0" encoding="UTF-8"?>
<svg width="100%" height="100%" viewBox="0 0 512 512" preserveAspectRatio="none" version="1.1" xmlns="http://www.w3.org/2000/svg" xmlns:xlink="http://www.w3.org/1999/xlink">
    <!-- Generator: Sketch 42 (36781) - http://www.bohemiancoding.com/sketch -->
    <title>6</title>
    <desc>Created with Sketch.</desc>
    <defs></defs>
    <g id="Page-1" stroke="none" stroke-width="1" fill="none" fill-rule="evenodd">
        <g id="6" fill="#FEFEFE">
            <path d="M218.255212,340.438989 C218.255212,367.74236 233.574016,379.728539 257.548901,379.728539 C281.551091,379.728539 296.869895,367.74236 296.869895,340.438989 C296.869895,315.784045 280.868435,302.46 257.548901,302.46 C234.229366,302.46 218.255212,315.784045 218.255212,340.438989 M250.230827,123.923258 C214.2685,123.923258 208.261126,164.577978 208.261126,229.177753 C224.23528,205.205393 255.555545,189.205618 294.193883,189.205618 C376.822585,189.205618 434.793746,240.508652 434.793746,342.432135 C434.793746,443.017753 368.821854,506.306966 262.900925,506.306966 C112.334283,506.306966 77,399.059326 77,261.832584 C77,82.6405618 130.301793,6 259.569563,6 C373.491223,6 418.792285,83.9511236 423.461653,162.557528 L285.537803,162.557528 C280.868435,137.247303 272.212355,123.923258 250.230827,123.923258" id="Fill-14"></path>
        </g>
    </g>
</svg>
