<?xml version="1.0" encoding="UTF-8"?>
<svg width="100%" height="100%" viewBox="0 0 512 512" preserveAspectRatio="none" version="1.1" xmlns="http://www.w3.org/2000/svg" xmlns:xlink="http://www.w3.org/1999/xlink">
    <!-- Generator: Sketch 42 (36781) - http://www.bohemiancoding.com/sketch -->
    <title>8</title>
    <desc>Created with Sketch.</desc>
    <defs></defs>
    <g id="Page-1" stroke="none" stroke-width="1" fill="none" fill-rule="evenodd">
        <g id="8" fill="#FEFEFE">
            <path d="M224.89136,161.54382 C224.89136,188.847191 238.899465,200.833371 255.556275,200.833371 C272.185779,200.833371 286.193883,188.847191 286.193883,161.54382 C286.193883,136.233596 272.868435,120.916404 255.556275,120.916404 C238.216808,120.916404 224.89136,136.233596 224.89136,161.54382 M212.248568,346.06 C212.248568,371.397528 227.567372,391.356292 255.556275,391.356292 C283.517871,391.356292 298.836675,371.397528 298.836675,346.06 C298.836675,319.439213 282.207171,300.108427 255.556275,300.108427 C228.878072,300.108427 212.248568,319.439213 212.248568,346.06 M79.6494361,136.233596 C79.6494361,72.944382 134.289235,1 255.556275,1 C376.796009,1 431.408501,72.944382 431.408501,136.233596 C431.408501,184.860899 408.771623,217.488427 374.802653,236.819213 C419.448365,262.784719 442.085243,301.446292 442.085243,354.742472 C442.085243,459.314382 354.131824,511.955281 255.556275,511.955281 C156.926113,511.955281 69,459.314382 69,354.742472 C69,301.446292 91.6368782,262.784719 136.282591,236.819213 C102.313621,217.488427 79.6494361,184.860899 79.6494361,136.233596" id="Fill-18"></path>
        </g>
    </g>
</svg>
