<?xml version="1.0" encoding="UTF-8"?>
<svg width="100%" height="100%" viewBox="0 0 512 512" preserveAspectRatio="none" version="1.1" xmlns="http://www.w3.org/2000/svg" xmlns:xlink="http://www.w3.org/1999/xlink">
    <!-- Generator: Sketch 42 (36781) - http://www.bohemiancoding.com/sketch -->
    <title>9</title>
    <desc>Created with Sketch.</desc>
    <defs></defs>
    <g id="Page-1" stroke="none" stroke-width="1" fill="none" fill-rule="evenodd">
        <g id="9" fill="#FEFEFE">
            <path d="M293.538533,171.867978 C293.538533,144.564607 278.192423,132.578427 254.244845,132.578427 C230.242654,132.578427 214.92385,144.564607 214.92385,171.867978 C214.92385,196.522921 230.898004,209.846966 254.244845,209.846966 C277.537073,209.846966 293.538533,196.522921 293.538533,171.867978 M263.556275,388.383708 C299.545908,388.383708 303.532619,347.728989 303.532619,283.129213 C287.531159,307.101573 256.238201,323.101348 217.599862,323.101348 C134.971161,323.101348 77,271.798315 77,169.874831 C77,69.2892135 142.944585,6 248.892821,6 C399.459463,6 434.793746,106.585618 434.793746,243.81236 C434.793746,409.680337 392.824045,506.306966 263.556275,506.306966 C149.607309,506.306966 93.0014603,428.355843 88.3320922,349.749438 L226.255942,349.749438 C230.898004,375.059663 241.574747,388.383708 263.556275,388.383708" id="Fill-20"></path>
        </g>
    </g>
</svg>
