<?xml version="1.0" encoding="UTF-8"?>
<svg width="100%" height="100%" viewBox="0 0 512 512" preserveAspectRatio="none" version="1.1" xmlns="http://www.w3.org/2000/svg" xmlns:xlink="http://www.w3.org/1999/xlink">
    <!-- Generator: Sketch 42 (36781) - http://www.bohemiancoding.com/sketch -->
    <title>3</title>
    <desc>Created with Sketch.</desc>
    <defs></defs>
    <g id="Page-1" stroke="none" stroke-width="1" fill="none" fill-rule="evenodd">
        <g id="3" fill="#FEFEFE">
            <path d="M257.249704,0 C367.247916,0 425.67055,61.1160515 425.67055,138.540849 C425.67055,209.147144 382.194536,239.705169 352.997136,249.223243 L352.997136,251.922814 C399.868843,269.59526 434.493787,302.852856 434.493787,365.332609 C434.493787,452.915584 371.339449,512 266.740947,512 C155.378891,512 78.6417781,463.101593 76.6099285,338.169919 L223.292767,338.169919 C221.260917,370.063815 231.447998,387.736261 259.949559,387.736261 C276.260023,387.736261 288.478954,374.822852 288.478954,354.450834 C288.478954,330.015546 274.896179,315.766266 233.479848,315.766266 L208.346147,315.766266 L208.346147,194.202098 L232.811843,194.202098 C245.030774,194.870033 278.987711,195.565799 278.987711,157.549166 C278.987711,133.086047 266.740947,124.263739 253.854011,124.263739 C232.116004,124.263739 228.72031,146.695222 228.72031,166.371474 L82.0374718,166.371474 C84.7373267,58.4164809 146.555654,0 257.249704,0" id="Fill-8"></path>
        </g>
    </g>
</svg>