<?xml version="1.0" encoding="UTF-8"?>
<svg width="100%" height="100%" viewBox="0 0 512 512" preserveAspectRatio="none" version="1.1" xmlns="http://www.w3.org/2000/svg" xmlns:xlink="http://www.w3.org/1999/xlink">
    <!-- Generator: Sketch 42 (36781) - http://www.bohemiancoding.com/sketch -->
    <title>5</title>
    <desc>Created with Sketch.</desc>
    <defs></defs>
    <g id="Page-1" stroke="none" stroke-width="1" fill="none" fill-rule="evenodd">
        <g id="5" fill="#FEFEFE">
            <path d="M414.648459,136.316327 L211.900263,136.316327 L211.900263,195.020016 C229.378556,178.94741 258.747818,169.149137 294.392074,169.149137 C393.674508,169.149137 439.805739,246.761774 439.805739,334.144035 C439.805739,446.680926 372.700556,511 262.9598,511 C139.895428,511 69.2945868,442.498038 71.3862513,347.408948 L222.387239,347.408948 C222.387239,358.611068 228.690886,378.178964 255.25216,378.178964 C279.72177,378.178964 289.492422,358.611068 289.492422,331.336342 C289.492422,303.374019 275.538441,290.109105 253.160495,290.109105 C232.186544,290.109105 223.07491,301.970173 223.07491,313.172292 L72.0739218,313.172292 L72.0739218,0 L414.648459,0 L414.648459,136.316327 Z" id="Fill-12"></path>
        </g>
    </g>
</svg>