<?xml version="1.0" encoding="UTF-8"?>
<svg width="100%" height="100%" viewBox="0 0 512 512" preserveAspectRatio="none" version="1.1" xmlns="http://www.w3.org/2000/svg" xmlns:xlink="http://www.w3.org/1999/xlink">
    <!-- Generator: Sketch 42 (36781) - http://www.bohemiancoding.com/sketch -->
    <title>6</title>
    <desc>Created with Sketch.</desc>
    <defs></defs>
    <g id="Page-1" stroke="none" stroke-width="1" fill="none" fill-rule="evenodd">
        <g id="6" fill="#FEFEFE">
            <path d="M217.375462,342.255403 C217.375462,370.1969 233.052293,382.463218 257.587511,382.463218 C282.150674,382.463218 297.827505,370.1969 297.827505,342.255403 C297.827505,317.024231 281.452063,303.38878 257.587511,303.38878 C233.722959,303.38878 217.375462,317.024231 217.375462,342.255403 M250.098401,120.679328 C213.295574,120.679328 207.147797,162.284217 207.147797,228.3938 C223.495294,203.861166 255.547567,187.487448 295.08895,187.487448 C379.648826,187.487448 438.974873,239.989522 438.974873,344.295132 C438.974873,447.231609 371.461105,512 263.064622,512 C108.978978,512 72.8188726,402.245798 72.8188726,261.811831 C72.8188726,78.4317835 127.36642,0 259.6554,0 C376.239605,0 422.599431,79.7729753 427.37793,160.216547 L286.230563,160.216547 C281.452063,134.314778 272.593676,120.679328 250.098401,120.679328" id="Fill-14"></path>
        </g>
    </g>
</svg>