<?xml version="1.0" encoding="UTF-8"?>
<svg width="100%" height="100%" viewBox="0 0 512 512" preserveAspectRatio="none" version="1.1" xmlns="http://www.w3.org/2000/svg" xmlns:xlink="http://www.w3.org/1999/xlink">
    <!-- Generator: Sketch 42 (36781) - http://www.bohemiancoding.com/sketch -->
    <title>8</title>
    <desc>Created with Sketch.</desc>
    <defs></defs>
    <g id="Page-1" stroke="none" stroke-width="1" fill="none" fill-rule="evenodd">
        <g id="8" fill="#FEFEFE">
            <path d="M224.831372,160.858023 C224.831372,188.21483 238.866892,200.224468 255.556302,200.224468 C272.218352,200.224468 286.253871,188.21483 286.253871,160.858023 C286.253871,135.498264 272.902344,120.151095 255.556302,120.151095 C238.1829,120.151095 224.831372,135.498264 224.831372,160.858023 M212.163837,345.735323 C212.163837,371.12244 227.512622,391.120266 255.556302,391.120266 C283.572622,391.120266 298.921407,371.12244 298.921407,345.735323 C298.921407,319.062437 282.259357,299.693818 255.556302,299.693818 C228.825887,299.693818 212.163837,319.062437 212.163837,345.735323 M79.3051923,135.498264 C79.3051923,72.0851857 134.051928,0 255.556302,0 C377.033316,0 431.752692,72.0851857 431.752692,135.498264 C431.752692,184.220736 409.07151,216.91212 375.036059,236.28074 C419.769148,262.297063 442.450329,301.034301 442.450329,354.434788 C442.450329,459.211358 354.324775,511.955281 255.556302,511.955281 C156.733109,511.955281 68.634914,459.211358 68.634914,354.434788 C68.634914,301.034301 91.3160952,262.297063 136.049185,236.28074 C102.013733,216.91212 79.3051923,184.220736 79.3051923,135.498264" id="Fill-18"></path>
        </g>
    </g>
</svg>