<?xml version="1.0" encoding="UTF-8"?>
<svg width="100%" height="100%" viewBox="0 0 512 512" preserveAspectRatio="none" version="1.1" xmlns="http://www.w3.org/2000/svg" xmlns:xlink="http://www.w3.org/1999/xlink">
    <!-- Generator: Sketch 42 (36781) - http://www.bohemiancoding.com/sketch -->
    <title>9</title>
    <desc>Created with Sketch.</desc>
    <defs></defs>
    <g id="Page-1" stroke="none" stroke-width="1" fill="none" fill-rule="evenodd">
        <g id="9" fill="#FEFEFE">
            <path d="M294.267809,170.235016 C294.267809,142.402665 278.624381,130.184262 254.212838,130.184262 C229.745625,130.184262 214.130032,142.402665 214.130032,170.235016 C214.130032,195.367629 230.413672,208.949816 254.212838,208.949816 C277.956334,208.949816 294.267809,195.367629 294.267809,170.235016 M263.704669,390.945559 C300.391571,390.945559 304.455523,349.503188 304.455523,283.651846 C288.144047,308.08865 256.244814,324.398408 216.857889,324.398408 C132.628325,324.398408 73.534021,272.10142 73.534021,168.203254 C73.534021,65.6688728 140.756228,1.15348315 248.757123,1.15348315 C402.240869,1.15348315 438.259724,103.687864 438.259724,243.57326 C438.259724,412.654793 395.476896,511.153483 263.704669,511.153483 C147.548037,511.153483 89.8454964,431.692121 85.0856632,351.562782 L225.681674,351.562782 C230.413672,377.363372 241.297267,390.945559 263.704669,390.945559" id="Fill-20"></path>
        </g>
    </g>
</svg>